<svg width="372" height="372" viewBox="0 0 372 372" fill="none" xmlns="http://www.w3.org/2000/svg">
<path fill-rule="evenodd" clip-rule="evenodd" d="M186 372C288.725 372 372 288.725 372 186C372 83.275 288.725 0 186 0C83.275 0 0 83.275 0 186C0 288.725 83.275 372 186 372ZM191 291C228.184 291 258.087 279.71 278.864 261.39L250 220C238.434 228.359 218.885 237 204 237C172.52 237 153 215.168 153 187C153 158.832 172.52 138 204 138C218.408 138 232.601 143.613 244 151.5L275.797 108.774C256.526 92.709 229.765 82.5 196 82.5C132.487 82.5 82 129.562 82 187C82 244.438 127.487 291 191 291Z" fill="white"/>
</svg>
