<svg width="14" height="20" viewBox="0 0 14 20" fill="none" xmlns="http://www.w3.org/2000/svg">
<path d="M0 1.03575V17.5899C0 18.1346 0.433125 18.5721 0.9625 18.5721C1.23812 18.5721 1.505 18.4515 1.68875 18.2372L5.3025 14.0183L7.84438 19.2105C8.19 19.9159 9.03 20.2016 9.72125 19.8489C10.4125 19.4962 10.6925 18.639 10.3469 17.9337L7.86625 12.8576H13.0331C13.5669 12.8576 14 12.4156 14 11.8709C14 11.5897 13.8819 11.3218 13.6763 11.1343L1.68875 0.263402C1.50062 0.0937533 1.26437 0 1.015 0C0.455 0 0 0.464302 0 1.03575Z" fill="#fff6"/>
</svg>
