<svg xmlns="http://www.w3.org/2000/svg" width="20" height="22" viewBox="0 0 20 22" fill="none">
<path d="M5.71523 1.71875C5.71523 0.769141 6.51429 0 7.50083 0C8.48737 0 9.28642 0.769141 9.28642 1.71875V8.08672C9.66586 7.76016 10.1658 7.5625 10.7149 7.5625C11.6345 7.5625 12.4201 8.12109 12.7237 8.90312C13.1165 8.50352 13.6701 8.25 14.2861 8.25C15.4155 8.25 16.3395 9.08789 16.4243 10.1535C16.8038 9.82266 17.3082 9.625 17.8573 9.625C19.0402 9.625 20 10.5488 20 11.6875V13.75V14.4375V16.5C20 19.5379 17.4421 22 14.2861 22H13.5719H10.7149H10.7104H10.4783C10.2551 22 10.0364 21.9871 9.8221 21.957C7.35352 21.7164 5.08135 20.4961 3.57252 18.5625L0.358444 14.4375C-0.235267 13.677 -0.0745633 12.6027 0.715563 12.0312C1.50569 11.4598 2.62169 11.6145 3.2154 12.375L5.71523 15.5848V1.71875ZM10.7149 13.0625C10.7149 12.6844 10.3935 12.375 10.0007 12.375C9.60783 12.375 9.28642 12.6844 9.28642 13.0625V17.1875C9.28642 17.5656 9.60783 17.875 10.0007 17.875C10.3935 17.875 10.7149 17.5656 10.7149 17.1875V13.0625ZM12.8576 12.375C12.4648 12.375 12.1434 12.6844 12.1434 13.0625V17.1875C12.1434 17.5656 12.4648 17.875 12.8576 17.875C13.2504 17.875 13.5719 17.5656 13.5719 17.1875V13.0625C13.5719 12.6844 13.2504 12.375 12.8576 12.375ZM16.4288 13.0625C16.4288 12.6844 16.1074 12.375 15.7146 12.375C15.3217 12.375 15.0003 12.6844 15.0003 13.0625V17.1875C15.0003 17.5656 15.3217 17.875 15.7146 17.875C16.1074 17.875 16.4288 17.5656 16.4288 17.1875V13.0625Z" fill="#fff6"/>
</svg>