<svg width="512" height="512" viewBox="0 0 512 512" fill="none" xmlns="http://www.w3.org/2000/svg">
    <path fill-rule="evenodd" clip-rule="evenodd" d="M117.84 118.34C104.053 132.127 104.053 154.48 117.84 168.267L196.881 247.308C201.958 252.385 201.958 260.616 196.881 265.692L117.84 344.733C104.053 358.52 104.053 380.873 117.84 394.66C131.627 408.447 153.98 408.447 167.767 394.66L246.808 315.619C251.885 310.543 260.116 310.543 265.192 315.619L344.233 394.66C358.02 408.447 380.373 408.447 394.16 394.66C407.947 380.873 407.947 358.52 394.16 344.733L315.119 265.692C310.043 260.616 310.043 252.385 315.119 247.308L394.16 168.267C407.947 154.48 407.947 132.127 394.16 118.34C380.373 104.553 358.02 104.553 344.233 118.34L265.192 197.381C260.116 202.458 251.885 202.458 246.808 197.381L167.767 118.34C153.98 104.553 131.627 104.553 117.84 118.34Z" fill="white"/>
</svg>
