<svg xmlns="http://www.w3.org/2000/svg" width="55" height="44" viewBox="0 0 55 44" fill="none">
    <path d="M43.4353 2.97189C43.4226 2.94711 43.4015 2.92769 43.3759 2.91711C40.4131 1.54832 37.2866 0.572271 34.0745 0.0133804C34.0453 0.00791738 34.0151 0.0118585 33.9883 0.0246433C33.9615 0.037428 33.9393 0.0584055 33.925 0.0845924C33.4993 0.862673 33.1128 1.66189 32.7671 2.47919C29.3046 1.94994 25.7826 1.94994 22.3201 2.47919C21.9721 1.65981 21.5794 0.860398 21.1439 0.0845924C21.129 0.0589746 21.1067 0.0384802 21.08 0.0257785C21.0534 0.0130768 21.0235 0.00875648 20.9944 0.0133804C17.7819 0.571098 14.6552 1.54722 11.6928 2.91719C11.6674 2.92801 11.646 2.9465 11.6315 2.97009C5.70739 11.8785 4.08454 20.5678 4.88066 29.1496C4.8829 29.1706 4.88931 29.191 4.89953 29.2095C4.90974 29.2279 4.92354 29.2442 4.94011 29.2572C8.38969 31.8291 12.2481 33.7922 16.3507 35.0628C16.3795 35.0716 16.4104 35.0712 16.4391 35.0617C16.4677 35.0523 16.4928 35.0342 16.511 35.0099C17.3921 33.8027 18.1729 32.5243 18.8453 31.1878C18.8546 31.1695 18.8598 31.1494 18.8608 31.1288C18.8618 31.1083 18.8584 31.0878 18.8509 31.0686C18.8434 31.0495 18.832 31.0322 18.8174 31.0178C18.8028 31.0034 18.7853 30.9924 18.7661 30.9853C17.5349 30.5109 16.343 29.9391 15.2015 29.2752C15.1807 29.2629 15.1633 29.2457 15.1508 29.225C15.1382 29.2044 15.1309 29.1809 15.1295 29.1567C15.1281 29.1325 15.1326 29.1084 15.1426 29.0864C15.1527 29.0644 15.1679 29.0452 15.1871 29.0306C15.4266 28.8499 15.6663 28.6619 15.895 28.472C15.9153 28.4552 15.9399 28.4444 15.966 28.4409C15.9921 28.4373 16.0186 28.4412 16.0427 28.452C23.5211 31.8887 31.6176 31.8887 39.0075 28.452C39.0316 28.4405 39.0584 28.4361 39.0849 28.4393C39.1114 28.4425 39.1364 28.4533 39.157 28.4702C39.3858 28.6601 39.6254 28.8499 39.8667 29.0306C39.886 29.0451 39.9014 29.0641 39.9116 29.086C39.9218 29.108 39.9265 29.1321 39.9253 29.1562C39.924 29.1804 39.9169 29.2039 39.9045 29.2247C39.8921 29.2454 39.8748 29.2628 39.8542 29.2752C38.7152 29.9447 37.5222 30.5162 36.2878 30.9835C36.2686 30.9908 36.2512 31.0022 36.2367 31.0168C36.2222 31.0313 36.2109 31.0489 36.2036 31.0681C36.1962 31.0874 36.193 31.1081 36.1941 31.1287C36.1953 31.1493 36.2007 31.1694 36.2101 31.1878C36.8938 32.5169 37.6734 33.7936 38.5426 35.0078C38.5603 35.0327 38.5852 35.0514 38.614 35.0613C38.6428 35.0711 38.6739 35.0716 38.703 35.0626C42.8129 33.7963 46.678 31.833 50.1319 29.2572C50.1487 29.2448 50.1627 29.229 50.173 29.2107C50.1833 29.1925 50.1895 29.1723 50.1914 29.1514C51.1445 19.23 48.5957 10.6118 43.4353 2.97189ZM19.9622 23.9242C17.7106 23.9242 15.8554 21.8436 15.8554 19.2884C15.8554 16.7333 17.6746 14.6525 19.9622 14.6525C22.2676 14.6525 24.1048 16.7513 24.0689 19.2883C24.0689 21.8436 22.2495 23.9242 19.9622 23.9242ZM35.1462 23.9242C32.8947 23.9242 31.0395 21.8436 31.0395 19.2884C31.0395 16.7333 32.8587 14.6525 35.1462 14.6525C37.4517 14.6525 39.2889 16.7513 39.2529 19.2883C39.2529 21.8436 37.4517 23.9242 35.1462 23.9242Z" fill="white"/>
</svg>