<svg width="131" height="130" viewBox="0 0 131 130" fill="none" xmlns="http://www.w3.org/2000/svg">
<path d="M108.296 54.9999C108.296 57.7613 110.535 59.9999 113.296 59.9999H125.296C128.058 59.9999 130.296 57.7613 130.296 54.9999V7.99989C130.296 3.58161 126.715 -0.000114783 122.296 -0.000105794L75.2964 -1.01725e-05C72.535 -4.55438e-06 70.2964 2.23857 70.2964 4.99999V17C70.2964 19.7614 72.535 22 75.2964 22H92.1367L48.3022 65.8346C44.0064 70.1304 44.0064 77.0954 48.3023 81.3912V81.3912C52.5981 85.6869 59.563 85.6869 63.8588 81.3911L108.296 36.9531V54.9999Z" fill="white"/>
<path fill-rule="evenodd" clip-rule="evenodd" d="M66.6023 30H31C13.8792 30 0 43.8792 0 61V99C0 116.121 13.8792 130 31 130H69C86.1208 130 100 116.121 100 99V62.7835L78 84.7835V99C78 103.971 73.9706 108 69 108H31C26.0294 108 22 103.971 22 99V61C22 56.0294 26.0294 52 31 52H44.6023L66.6023 30Z" fill="white"/>
</svg>
