<svg xmlns="http://www.w3.org/2000/svg" width="41" height="40" viewBox="0 0 41 40" fill="none">
  <path d="M13.7135 32.2079C13.7135 32.3734 13.5234 32.5057 13.2837 32.5057C13.0109 32.5305 12.8208 32.3982 12.8208 32.2079C12.8208 32.0425 13.0109 31.9102 13.2506 31.9102C13.4986 31.8854 13.7135 32.0177 13.7135 32.2079ZM11.1427 31.8357C11.0849 32.0012 11.2502 32.1914 11.4982 32.241C11.7131 32.3237 11.9611 32.241 12.0107 32.0756C12.0603 31.9102 11.9032 31.7199 11.6552 31.6455C11.4403 31.5876 11.2006 31.6703 11.1427 31.8357ZM14.7964 31.6951C14.5567 31.753 14.3913 31.9102 14.4161 32.1004C14.4409 32.2658 14.6558 32.3734 14.9038 32.3155C15.1435 32.2576 15.3089 32.1004 15.2841 31.935C15.2593 31.7778 15.0361 31.6703 14.7964 31.6951ZM20.2355 0C8.77036 0 0 8.70954 0 20.1817C0 29.3544 5.76976 37.2037 14.0111 39.9663C15.0692 40.1565 15.4411 39.5031 15.4411 38.9655C15.4411 38.4527 15.4163 35.6239 15.4163 33.887C15.4163 33.887 9.63004 35.1277 8.41492 31.4222C8.41492 31.4222 7.47258 29.0153 6.11694 28.3949C6.11694 28.3949 4.22399 27.0964 6.24919 27.1212C6.24919 27.1212 8.30746 27.2866 9.43992 29.2551C11.2502 32.4478 14.2839 31.5297 15.4659 30.9838C15.656 29.6604 16.1933 28.7423 16.7885 28.1964C12.1677 27.6836 7.50565 27.0136 7.50565 19.0568C7.50565 16.7822 8.13387 15.6408 9.45645 14.1851C9.24153 13.6474 8.53891 11.4308 9.67137 8.56893C11.399 8.03131 15.375 10.8021 15.375 10.8021C17.0282 10.339 18.8054 10.0991 20.5661 10.0991C22.3268 10.0991 24.104 10.339 25.7573 10.8021C25.7573 10.8021 29.7333 8.02304 31.4609 8.56893C32.5933 11.439 31.8907 13.6474 31.6758 14.1851C32.9984 15.6491 33.8085 16.7905 33.8085 19.0568C33.8085 27.0385 28.9397 27.6753 24.319 28.1964C25.0794 28.8498 25.7242 30.0905 25.7242 32.0342C25.7242 34.8216 25.6994 38.2707 25.6994 38.9489C25.6994 39.4866 26.0796 40.14 27.1294 39.9498C35.3956 37.2037 41 29.3544 41 20.1817C41 8.70954 31.7006 0 20.2355 0ZM8.03468 28.5273C7.92722 28.61 7.95202 28.8002 8.09254 28.9574C8.2248 29.0897 8.41492 29.1476 8.52238 29.0401C8.62984 28.9574 8.60504 28.7671 8.46452 28.61C8.33226 28.4776 8.14214 28.4197 8.03468 28.5273ZM7.14194 27.8573C7.08407 27.9648 7.16673 28.0972 7.33206 28.1799C7.46431 28.2626 7.62964 28.2378 7.6875 28.122C7.74536 28.0145 7.6627 27.8821 7.49738 27.7994C7.33206 27.7498 7.1998 27.7746 7.14194 27.8573ZM9.82016 30.8018C9.6879 30.9094 9.7375 31.1575 9.92762 31.3147C10.1177 31.5049 10.3575 31.5297 10.4649 31.3974C10.5724 31.2898 10.5228 31.0417 10.3575 30.8846C10.1756 30.6943 9.92762 30.6695 9.82016 30.8018ZM8.87782 29.586C8.74557 29.6687 8.74557 29.8837 8.87782 30.074C9.01008 30.2642 9.23327 30.3469 9.34073 30.2642C9.47298 30.1567 9.47298 29.9416 9.34073 29.7514C9.225 29.5612 9.01008 29.4785 8.87782 29.586Z" fill="white"/>
</svg>