<svg xmlns="http://www.w3.org/2000/svg" width="43" height="43" viewBox="0 0 43 35" fill="none">
    <path d="M21.544 8.68455C16.6432 8.68455 12.6903 12.6384 12.6903 17.5402C12.6903 22.442 16.6432 26.3958 21.544 26.3958C26.4447 26.3958 30.3976 22.442 30.3976 17.5402C30.3976 12.6384 26.4447 8.68455 21.544 8.68455ZM21.544 23.2975C18.377 23.2975 15.7879 20.7156 15.7879 17.5402C15.7879 14.3648 18.3693 11.7829 21.544 11.7829C24.7187 11.7829 27.3 14.3648 27.3 17.5402C27.3 20.7156 24.711 23.2975 21.544 23.2975ZM32.8249 8.32231C32.8249 9.47069 31.9002 10.3879 30.7598 10.3879C29.6117 10.3879 28.6947 9.46298 28.6947 8.32231C28.6947 7.18163 29.6194 6.25676 30.7598 6.25676C31.9002 6.25676 32.8249 7.18163 32.8249 8.32231ZM38.6888 10.4187C38.5578 7.65178 37.926 5.20087 35.8994 3.18156C33.8806 1.16226 31.4302 0.530262 28.6639 0.391531C25.8128 0.229678 17.2674 0.229678 14.4163 0.391531C11.6578 0.522555 9.20739 1.15455 7.18083 3.17385C5.15427 5.19316 4.53012 7.64407 4.39142 10.411C4.22961 13.2627 4.22961 21.81 4.39142 24.6617C4.52242 27.4286 5.15427 29.8795 7.18083 31.8988C9.20739 33.9181 11.65 34.5501 14.4163 34.6889C17.2674 34.8507 25.8128 34.8507 28.6639 34.6889C31.4302 34.5578 33.8806 33.9258 35.8994 31.8988C37.9183 29.8795 38.5501 27.4286 38.6888 24.6617C38.8506 21.81 38.8506 13.2704 38.6888 10.4187ZM35.0056 27.7215C34.4045 29.2321 33.241 30.3959 31.723 31.0048C29.4499 31.9065 24.056 31.6985 21.544 31.6985C19.032 31.6985 13.6304 31.8988 11.3649 31.0048C9.85466 30.4036 8.69112 29.2398 8.08238 27.7215C7.18083 25.4479 7.38888 20.0528 7.38888 17.5402C7.38888 15.0276 7.18854 9.62484 8.08238 7.3589C8.68341 5.84828 9.84695 4.68448 11.3649 4.0756C13.6381 3.17385 19.032 3.38195 21.544 3.38195C24.056 3.38195 29.4576 3.18156 31.723 4.0756C33.2333 4.67677 34.3968 5.84057 35.0056 7.3589C35.9071 9.63254 35.6991 15.0276 35.6991 17.5402C35.6991 20.0528 35.9071 25.4556 35.0056 27.7215Z" fill="white"/>
</svg>