<svg width="278" height="57" viewBox="0 0 278 57" fill="none" xmlns="http://www.w3.org/2000/svg">
<path d="M26.2334 23.3605C26.2334 27.4992 25.0174 30.5925 22.5854 32.6405C20.1534 34.6885 16.5694 35.7125 11.8334 35.7125H1.72141V56.0005H0.441406V10.9445H11.8334C16.7827 10.9445 20.4094 12.0325 22.7134 14.2085C25.0601 16.3845 26.2334 19.4352 26.2334 23.3605ZM11.8334 34.3685C16.4414 34.3685 19.7694 33.4085 21.8174 31.4885C23.9081 29.5685 24.9534 26.8592 24.9534 23.3605C24.9534 19.6912 23.9294 16.9178 21.8814 15.0405C19.8334 13.1632 16.4841 12.2245 11.8334 12.2245H1.72141V34.3685H11.8334Z" fill="white"/>
<path d="M32.6539 38.7205C32.6539 35.0938 33.3579 31.9578 34.7659 29.3125C36.1739 26.6245 38.1579 24.5765 40.7179 23.1685C43.2779 21.7178 46.2006 20.9925 49.4859 20.9925C53.4539 20.9925 56.8032 22.0378 59.5339 24.1285C62.3072 26.1765 64.1632 28.8005 65.1019 32.0005V21.4405H66.3179V56.0005H65.1019V45.4405C64.1632 48.6405 62.3072 51.2858 59.5339 53.3765C56.8032 55.4245 53.4539 56.4485 49.4859 56.4485C46.2006 56.4485 43.2779 55.7445 40.7179 54.3365C38.1579 52.8858 36.1739 50.8378 34.7659 48.1925C33.3579 45.5045 32.6539 42.3472 32.6539 38.7205ZM65.1019 38.7205C65.1019 35.4352 64.4192 32.5552 63.0539 30.0805C61.7312 27.5632 59.8752 25.6218 57.4859 24.2565C55.1392 22.8485 52.4726 22.1445 49.4859 22.1445C46.3286 22.1445 43.5766 22.8058 41.2299 24.1285C38.9259 25.4512 37.1339 27.3712 35.8539 29.8885C34.5739 32.3632 33.9339 35.3072 33.9339 38.7205C33.9339 42.1338 34.5739 45.0992 35.8539 47.6165C37.1339 50.0912 38.9259 51.9898 41.2299 53.3125C43.5766 54.6352 46.3286 55.2965 49.4859 55.2965C52.4726 55.2965 55.1392 54.6138 57.4859 53.2485C59.8752 51.8405 61.7312 49.8992 63.0539 47.4245C64.4192 44.9072 65.1019 42.0058 65.1019 38.7205Z" fill="white"/>
<path d="M88.2634 54.0805L102.087 21.4405H103.431L88.7114 56.0005H87.7514L73.0314 21.4405H74.4394L88.2634 54.0805Z" fill="white"/>
<path d="M125.169 55.2965C129.052 55.2965 132.316 54.3152 134.961 52.3525C137.606 50.3898 139.206 47.7018 139.761 44.2885H141.041C140.444 47.9152 138.737 50.8592 135.921 53.1205C133.148 55.3392 129.564 56.4485 125.169 56.4485C121.969 56.4485 119.11 55.7445 116.593 54.3365C114.076 52.9285 112.092 50.8805 110.641 48.1925C109.233 45.5045 108.529 42.3472 108.529 38.7205C108.529 35.0938 109.233 31.9365 110.641 29.2485C112.092 26.5605 114.076 24.5125 116.593 23.1045C119.11 21.6965 121.969 20.9925 125.169 20.9925C128.54 20.9925 131.42 21.7178 133.809 23.1685C136.198 24.5765 137.99 26.4112 139.185 28.6725C140.422 30.9338 141.041 33.3232 141.041 35.8405C141.041 37.3765 141.02 38.5285 140.977 39.2965H109.809C109.852 42.8378 110.577 45.8032 111.985 48.1925C113.436 50.5818 115.313 52.3738 117.617 53.5685C119.921 54.7205 122.438 55.2965 125.169 55.2965ZM125.169 22.1445C122.438 22.1445 119.921 22.7418 117.617 23.9365C115.313 25.0885 113.436 26.8592 111.985 29.2485C110.577 31.6378 109.852 34.6032 109.809 38.1445H139.889C140.102 34.6032 139.526 31.6378 138.161 29.2485C136.838 26.8592 135.004 25.0885 132.657 23.9365C130.353 22.7418 127.857 22.1445 125.169 22.1445Z" fill="white"/>
<path d="M151.596 8.64049V56.0005H150.316V8.64049H151.596Z" fill="white"/>
<path d="M193.418 56.4485C190.56 56.4485 188.064 55.9365 185.93 54.9125C183.84 53.8885 182.218 52.5445 181.066 50.8805C179.914 49.1738 179.232 47.3392 179.018 45.3765H180.298C180.512 46.8698 181.045 48.3632 181.898 49.8565C182.794 51.3498 184.181 52.6298 186.058 53.6965C187.978 54.7632 190.432 55.2965 193.418 55.2965C195.808 55.2965 197.92 54.8485 199.754 53.9525C201.589 53.0138 202.997 51.7765 203.978 50.2405C204.96 48.7045 205.45 46.9978 205.45 45.1205C205.45 42.6885 204.896 40.7685 203.786 39.3605C202.677 37.9098 201.29 36.8432 199.626 36.1605C198.005 35.4778 195.808 34.7738 193.034 34.0485C190.133 33.2805 187.808 32.5125 186.058 31.7445C184.309 30.9765 182.816 29.8032 181.578 28.2245C180.384 26.6032 179.786 24.4272 179.786 21.6965C179.786 19.7338 180.32 17.8992 181.386 16.1925C182.496 14.4432 184.053 13.0565 186.058 12.0325C188.106 11.0085 190.432 10.4965 193.034 10.4965C195.68 10.4965 197.962 10.9658 199.882 11.9045C201.802 12.8432 203.296 14.0378 204.362 15.4885C205.472 16.8965 206.197 18.3898 206.538 19.9685H205.258C204.96 18.7312 204.341 17.4725 203.402 16.1925C202.464 14.9125 201.12 13.8458 199.37 12.9925C197.621 12.0965 195.509 11.6485 193.034 11.6485C190.858 11.6485 188.853 12.0752 187.018 12.9285C185.226 13.7392 183.776 14.9125 182.666 16.4485C181.6 17.9418 181.066 19.6912 181.066 21.6965C181.066 24.1712 181.621 26.1552 182.73 27.6485C183.882 29.0992 185.29 30.1872 186.954 30.9125C188.618 31.5952 190.837 32.2992 193.61 33.0245C196.512 33.7925 198.816 34.5605 200.522 35.3285C202.272 36.0538 203.744 37.2058 204.938 38.7845C206.133 40.3205 206.73 42.4325 206.73 45.1205C206.73 46.9978 206.218 48.8112 205.194 50.5605C204.213 52.3098 202.72 53.7392 200.714 54.8485C198.709 55.9152 196.277 56.4485 193.418 56.4485ZM200.586 2.17649L192.714 7.36049L184.778 2.17649V0.896484L192.714 6.08049L200.586 0.896484V2.17649Z" fill="white"/>
<path d="M230.419 55.2965C234.302 55.2965 237.566 54.3152 240.211 52.3525C242.856 50.3898 244.456 47.7018 245.011 44.2885H246.291C245.694 47.9152 243.987 50.8592 241.171 53.1205C238.398 55.3392 234.814 56.4485 230.419 56.4485C227.219 56.4485 224.36 55.7445 221.843 54.3365C219.326 52.9285 217.342 50.8805 215.891 48.1925C214.483 45.5045 213.779 42.3472 213.779 38.7205C213.779 35.0938 214.483 31.9365 215.891 29.2485C217.342 26.5605 219.326 24.5125 221.843 23.1045C224.36 21.6965 227.219 20.9925 230.419 20.9925C233.79 20.9925 236.67 21.7178 239.059 23.1685C241.448 24.5765 243.24 26.4112 244.435 28.6725C245.672 30.9338 246.291 33.3232 246.291 35.8405C246.291 37.3765 246.27 38.5285 246.227 39.2965H215.059C215.102 42.8378 215.827 45.8032 217.235 48.1925C218.686 50.5818 220.563 52.3738 222.867 53.5685C225.171 54.7205 227.688 55.2965 230.419 55.2965ZM230.419 22.1445C227.688 22.1445 225.171 22.7418 222.867 23.9365C220.563 25.0885 218.686 26.8592 217.235 29.2485C215.827 31.6378 215.102 34.6032 215.059 38.1445H245.139C245.352 34.6032 244.776 31.6378 243.411 29.2485C242.088 26.8592 240.254 25.0885 237.907 23.9365C235.603 22.7418 233.107 22.1445 230.419 22.1445Z" fill="white"/>
<path d="M268.238 9.92049C264.526 9.92049 261.945 10.6458 260.494 12.0965C259.044 13.5045 258.318 15.8085 258.318 19.0085V21.4405H268.238V22.7845H258.318V56.0005H257.038V22.7845H251.406V21.4405H257.038V19.0085C257.038 15.5098 257.892 12.9072 259.598 11.2005C261.305 9.49382 264.185 8.64049 268.238 8.64049V9.92049Z" fill="white"/>
<path d="M277.221 8.64049V56.0005H275.941V8.64049H277.221Z" fill="white"/>
</svg>
