<svg width="39" height="38" viewBox="0 0 39 38" fill="none" xmlns="http://www.w3.org/2000/svg">
<path d="M1.42507 19.3119C-0.253388 20.2693 -0.0974245 22.8224 1.69244 23.5646L12.1123 27.9063V35.5731C12.1123 36.9164 13.1966 38 14.5408 38C15.2612 38 15.9445 37.6809 16.405 37.1242L21.0096 31.6098L30.2114 35.4395C31.6151 36.0258 33.2416 35.1055 33.4718 33.6063L38.2249 2.73151C38.3661 1.83347 37.9724 0.928011 37.2223 0.415906C36.4722 -0.0961999 35.4919 -0.140731 34.6972 0.312L1.42507 19.3119ZM5.29444 21.2044L30.657 6.72445L14.3477 24.9376L14.4369 25.0118L5.29444 21.2044ZM30.1817 31.5727L17.8086 26.4145L33.7094 8.65412L30.1817 31.5727Z" fill="white"/>
</svg>
